<svg width="44" height="39" viewBox="0 0 44 39" fill="none" xmlns="http://www.w3.org/2000/svg">
<path d="M43.5505 33.0371C43.3912 32.6129 31.9333 1.47039 31.7708 1.04928C31.4304 0.165674 30.9307 0.165674 30.2333 0.171882C24.7071 0.215338 19.181 0.168778 13.6558 0.166709C12.6894 0.165674 12.3242 0.122218 11.8752 1.23552C11.6651 1.81908 0.340663 32.6429 0.179255 33.0847C-0.0421647 33.689 -0.114592 33.9497 0.293068 34.1535C1.06597 34.4815 12.1038 38.4733 12.3759 38.5726C13.3413 38.9265 13.7251 38.7609 14.0873 37.8142C14.406 36.9792 15.7014 33.8328 15.9176 33.3682C16.1483 32.8571 16.1483 32.6802 17.1768 32.6688C20.3087 32.6326 23.4397 32.6657 26.5716 32.6688C27.5225 32.6688 27.7108 32.9461 27.9136 33.4572C28.0946 33.9124 29.1955 37.0289 29.5877 38.1215C29.9498 38.8551 30.7372 38.9989 31.6404 38.6543C32.1971 38.4246 43.0901 34.3367 43.3777 34.197C43.9292 33.9331 43.6871 33.4034 43.5505 33.0371ZM24.2126 8.71825C24.3471 8.71825 24.6792 8.69445 24.7837 8.82068C24.8168 8.86414 25.0072 9.17247 25.0589 9.31525C25.3476 10.1161 25.6342 10.918 25.9208 11.7188C26.1019 12.232 26.284 12.7452 26.465 13.2573C26.8965 14.2372 27.2255 15.2553 27.5773 16.2651C27.7946 16.8776 28.0119 17.4902 28.2281 18.1027C28.6327 18.9791 28.9172 19.8999 29.2317 20.8094C29.5473 21.6537 29.8691 22.4969 30.1754 23.3454C30.3585 23.8524 30.1929 24.11 29.6694 24.1203C28.9306 24.1359 28.1919 24.1214 27.4531 24.1265C27.2038 24.1276 27.0175 24.0417 26.9296 23.7996C26.0501 21.3867 25.1727 18.9739 24.2943 16.56C24.2705 16.5197 24.2591 16.4855 24.256 16.4576C24.0718 15.9754 23.8887 15.4922 23.7056 15.009C23.3838 14.1378 23.062 13.2667 22.7402 12.3965C22.6637 12.1896 22.5654 11.8481 22.4019 11.844C20.9658 11.8326 19.5296 11.8202 18.0935 11.8098C17.3765 11.8057 17.2347 11.6205 17.4634 10.949C17.6 10.5475 18.1473 9.04831 18.2073 8.90449C18.3056 8.71618 18.7557 8.71825 18.8892 8.71825C20.6636 8.71618 22.4381 8.71618 24.2126 8.71825ZM23.3993 24.1152C22.1132 24.1183 20.8281 24.0996 19.5421 24.0903C19.2172 23.9807 19.1675 23.7344 19.2544 23.453C19.3206 23.2398 19.42 23.0381 19.5089 22.8322C19.5152 22.8104 19.5245 22.7887 19.5369 22.768C19.959 21.5999 20.3822 20.4317 20.8044 19.2626C20.8975 19.008 20.9958 18.7545 21.0806 18.4969C21.1603 18.2589 21.3124 18.1172 21.5659 18.1224C21.7956 18.1265 21.9383 18.2589 22.0149 18.4752C22.317 19.3226 22.6233 20.1679 22.9285 21.0153C23.1624 21.6599 23.809 23.2998 23.8535 23.485C23.9384 23.8441 23.8039 24.1141 23.3993 24.1152ZM5.67749 33.5576C5.43848 33.4675 3.63402 32.795 3.61539 32.7847C3.18083 32.6367 3.11772 32.4008 3.23774 32.0583C3.4902 31.333 13.5617 4.09431 13.8079 3.37832C13.8814 3.16311 14.0004 2.98825 14.1597 2.83512C14.3687 2.71717 14.4742 2.72752 14.6377 2.72752C17.1095 2.72441 19.5824 2.72441 22.0542 2.72752C22.2177 2.72752 22.3719 2.71717 22.5322 2.83512C23.0134 3.27279 23.48 4.95205 23.5483 5.20969C23.6559 5.60907 23.182 6.2278 22.7878 6.23297C21.0309 6.2547 19.273 6.23608 17.5162 6.23815C17.0826 6.23918 16.6471 6.2009 16.2239 6.33541C15.81 7.12382 6.73802 32.2321 6.37382 33.2399C6.25794 33.5596 6.01686 33.6869 5.67749 33.5576ZM11.9403 35.2844C11.8017 35.57 11.6072 35.7335 11.2461 35.5886C10.5715 35.3175 9.88445 35.0775 9.2026 34.825C8.89841 34.6936 8.89117 34.4556 8.98739 34.1939C9.26158 33.451 15.6145 16.024 15.9818 14.9842C16.0811 14.7028 16.2704 14.5952 16.5684 14.6003C17.272 14.6138 17.9756 14.6014 18.6791 14.6055C19.2824 14.6097 19.4489 14.8456 19.2523 15.4053C19.2027 15.5502 12.019 35.123 11.9403 35.2844ZM33.6974 34.9326C33.4884 34.9978 32.1764 35.4644 31.8122 35.5938C31.4883 35.7097 31.2804 35.5793 31.1717 35.2865C30.9772 34.765 29.6321 31.0816 29.4635 30.6439C29.3973 30.4722 29.1438 30.3025 28.6471 30.3046C25.063 30.3221 21.48 30.3108 17.8959 30.3035C17.1706 30.3025 16.855 30.0024 17.0464 29.4644C17.3051 28.735 17.5969 28.019 17.8721 27.2957C18.0397 26.9346 18.198 26.7877 18.556 26.797C22.7237 26.9088 26.8965 26.7939 31.0662 26.797C31.2276 26.797 31.4573 26.797 31.538 26.9926C31.6291 27.2585 34.046 33.9735 34.1009 34.1132C34.2654 34.5312 34.1205 34.8002 33.6974 34.9326ZM39.4781 32.766C39.0601 32.9274 37.5794 33.5079 37.4025 33.5689C37.09 33.6755 36.8541 33.5627 36.7414 33.2678C36.5686 32.8105 26.2219 4.38609 25.9477 3.61319C25.7739 3.12379 25.9601 2.8434 26.464 2.83719C27.0838 2.82995 27.7035 2.84547 28.3233 2.85168C29.0941 2.88168 29.0941 2.88168 29.4707 3.94946C29.7842 4.89929 39.6002 31.3206 39.8557 32.0366C40.0337 32.5322 40.1082 32.5043 39.4781 32.766Z" fill="#2D2D2D"/>
</svg>
