<svg width="152" height="34" viewBox="0 0 152 34" fill="none" xmlns="http://www.w3.org/2000/svg">
<path d="M16.0327 21.5323H8.49421L6.74528 25H0.533587L12.0222 3.74153H18.837L22.8173 25H16.5754L16.0327 21.5323ZM15.3391 17.0394L14.2837 10.1341L10.7859 17.0394H15.3391ZM32.7042 18.6677C32.6841 18.7682 32.6741 18.8888 32.6741 19.0295C32.6741 19.3512 32.7645 19.5924 32.9455 19.7532C33.1465 19.8939 33.4681 19.9643 33.9104 19.9643H35.6291L34.7245 25H32.1313C28.4525 25 26.6131 23.4521 26.6131 20.3563C26.6131 19.8336 26.6735 19.2406 26.7941 18.5772L27.7891 12.9988H25.7085L26.583 8.08368H28.6636L29.3873 3.98276H35.3276L34.6039 8.08368H37.6495L36.775 12.9988H33.7295L32.7042 18.6677ZM45.3959 18.6677C45.3758 18.7682 45.3658 18.8888 45.3658 19.0295C45.3658 19.3512 45.4562 19.5924 45.6372 19.7532C45.8382 19.8939 46.1598 19.9643 46.6021 19.9643H48.3209L47.4162 25H44.823C41.1442 25 39.3049 23.4521 39.3049 20.3563C39.3049 19.8336 39.3652 19.2406 39.4858 18.5772L40.4809 12.9988H38.4002L39.2747 8.08368H41.3553L42.079 3.98276H48.0193L47.2956 8.08368H50.3412L49.4667 12.9988H46.4212L45.3959 18.6677ZM60.7713 7.87261C62.9826 7.87261 64.7316 8.46563 66.0181 9.65168C67.3248 10.8377 67.9781 12.456 67.9781 14.5065C67.9781 15.1899 67.9279 15.793 67.8273 16.3157C67.7067 16.959 67.5861 17.4213 67.4655 17.7028H56.2784C56.2583 17.8234 56.2483 18.0043 56.2483 18.2455C56.2483 19.0094 56.4292 19.5723 56.791 19.9342C57.173 20.296 57.6755 20.4769 58.2987 20.4769C59.2838 20.4769 60.0678 20.0347 60.6507 19.1502H66.9227C66.4604 20.3161 65.7668 21.3614 64.8421 22.2862C63.9375 23.1908 62.862 23.9044 61.6157 24.4271C60.3894 24.9497 59.0827 25.2111 57.6956 25.2111C55.4844 25.2111 53.7254 24.608 52.4187 23.4018C51.1121 22.1957 50.4587 20.5372 50.4587 18.4265C50.4587 17.8234 50.519 17.1901 50.6396 16.5268C50.9613 14.7577 51.5945 13.2299 52.5393 11.9434C53.5043 10.6367 54.6903 9.63158 56.0975 8.92799C57.5248 8.2244 59.0827 7.87261 60.7713 7.87261ZM62.0077 15.0492C62.0479 14.7678 62.068 14.5869 62.068 14.5065C62.068 13.8632 61.8669 13.3807 61.4649 13.0591C61.0628 12.7173 60.5402 12.5465 59.8969 12.5465C59.1531 12.5465 58.5098 12.7575 57.967 13.1797C57.4243 13.6018 57.0222 14.225 56.7609 15.0492H62.0077ZM82.79 7.93291C84.4384 7.93291 85.725 8.41537 86.6497 9.3803C87.5945 10.3251 88.067 11.6418 88.067 13.3305C88.067 13.8933 88.0066 14.4964 87.886 15.1397L86.1371 25H80.227L81.8251 15.9237C81.8854 15.6221 81.9156 15.3508 81.9156 15.1095C81.9156 14.3858 81.7045 13.823 81.2823 13.4209C80.8803 13.0189 80.3074 12.8178 79.5636 12.8178C78.7193 12.8178 78.0056 13.0792 77.4226 13.6018C76.8397 14.1245 76.4477 14.8482 76.2466 15.7729L74.6183 25H68.678L71.6934 8.08368H77.6036L77.1814 10.496C77.8448 9.73209 78.659 9.11896 79.6239 8.65661C80.5888 8.17414 81.6442 7.93291 82.79 7.93291ZM89.8927 16.5268C90.2143 14.7778 90.8073 13.25 91.6718 11.9434C92.5362 10.6367 93.5815 9.63158 94.8078 8.92799C96.034 8.2244 97.3206 7.87261 98.6674 7.87261C99.753 7.87261 100.678 8.10379 101.442 8.56614C102.226 9.0084 102.788 9.62153 103.13 10.4055L104.487 2.68614H110.427L106.477 25H100.537L100.989 22.648C100.386 23.432 99.6223 24.0552 98.6976 24.5175C97.7729 24.9799 96.7376 25.2111 95.5918 25.2111C93.8227 25.2111 92.3954 24.6281 91.3099 23.4622C90.2445 22.2761 89.7118 20.6679 89.7118 18.6375C89.7118 17.9741 89.7721 17.2706 89.8927 16.5268ZM102.075 16.5268C102.135 16.2252 102.165 15.9438 102.165 15.6825C102.165 14.8381 101.924 14.1848 101.442 13.7225C100.979 13.2601 100.376 13.0289 99.6324 13.0289C98.7479 13.0289 97.9538 13.3405 97.2502 13.9637C96.5466 14.5668 96.1044 15.4211 95.9234 16.5268C95.8631 16.8283 95.833 17.1198 95.833 17.4012C95.833 18.2455 96.0642 18.8989 96.5265 19.3612C97.009 19.8236 97.6221 20.0548 98.3659 20.0548C99.2504 20.0548 100.044 19.7432 100.748 19.12C101.452 18.4968 101.894 17.6324 102.075 16.5268ZM116.117 6.51568C115.192 6.51568 114.459 6.2845 113.916 5.82214C113.393 5.35978 113.132 4.76676 113.132 4.04306C113.132 3.39978 113.303 2.80676 113.644 2.26399C114.006 1.70111 114.489 1.25886 115.092 0.937217C115.715 0.595473 116.409 0.424601 117.172 0.424601C118.097 0.424601 118.821 0.665832 119.344 1.14829C119.886 1.61065 120.158 2.21373 120.158 2.95753C120.158 3.60081 119.977 4.19383 119.615 4.7366C119.273 5.27937 118.791 5.71158 118.168 6.03322C117.544 6.35486 116.861 6.51568 116.117 6.51568ZM118.771 8.08368L115.785 25H109.845L112.86 8.08368H118.771ZM131.514 6.27445C131.353 6.25435 131.142 6.2443 130.881 6.2443C130.218 6.2443 129.715 6.39507 129.373 6.6966C129.032 6.97804 128.78 7.4404 128.619 8.08368H131.273L130.398 12.9988H127.745L125.634 25H119.694L121.805 12.9988H119.965L120.84 8.08368H122.679L122.709 7.93291C123.111 5.76184 124.046 4.10337 125.514 2.95753C126.981 1.79158 128.901 1.2086 131.273 1.2086C131.755 1.2086 132.127 1.21865 132.389 1.23876L131.514 6.27445ZM138.119 8.08368L139.959 17.6726L145.085 8.08368H151.568L136.461 33.0511H130.038L135.617 24.2763L131.546 8.08368H138.119Z" fill="black"/>
</svg>
